<?xml version="1.0" encoding="UTF-8" standalone="no"?>
<!-- Created with Inkscape (http://www.inkscape.org/) -->

<svg
   version="1.1"
   id="svg2382"
   xml:space="preserve"
   width="682.66669"
   height="682.66669"
   viewBox="0 0 682.66669 682.66669"
   xmlns="http://www.w3.org/2000/svg"
   xmlns:svg="http://www.w3.org/2000/svg"><defs
     id="defs2386"><clipPath
       clipPathUnits="userSpaceOnUse"
       id="clipPath2396"><path
         d="M 0,512 H 512 V 0 H 0 Z"
         id="path2394" /></clipPath></defs><g
     id="g2388"
     transform="matrix(1.3333333,0,0,-1.3333333,0,682.66667)"><g
       id="g2390"><g
         id="g2392"
         clip-path="url(#clipPath2396)"><g
           id="g2398"
           transform="translate(448,233)"><path
             d="m 0,0 v 264 h -314 v -391.004 h 126"
             style="fill:none;stroke:#000000;stroke-width:30;stroke-linecap:round;stroke-linejoin:round;stroke-miterlimit:22.926;stroke-dasharray:none;stroke-opacity:1"
             id="path2400" /></g><g
           id="g2402"
           transform="translate(377,15)"><path
             d="M 0,0 C 66.094,0 120,53.906 120,120 120,186.094 66.094,240 0,240 -66.094,240 -120,186.094 -120,120 -120,53.906 -66.094,0 0,0 Z"
             style="fill:none;stroke:#000000;stroke-width:30;stroke-linecap:round;stroke-linejoin:round;stroke-miterlimit:22.926;stroke-dasharray:none;stroke-opacity:1"
             id="path2404" /></g><path
           d="M 15,176 H 75 V 390 H 15 Z"
           style="fill:none;stroke:#000000;stroke-width:30;stroke-linecap:round;stroke-linejoin:round;stroke-miterlimit:22.926;stroke-dasharray:none;stroke-opacity:1"
           id="path2406" /><g
           id="g2408"
           transform="translate(15,176)"><path
             d="M 0,0 H 60 L 30,-72 Z"
             style="fill:none;stroke:#000000;stroke-width:30;stroke-linecap:round;stroke-linejoin:round;stroke-miterlimit:22.926;stroke-dasharray:none;stroke-opacity:1"
             id="path2410" /></g><g
           id="g2412"
           transform="translate(15,384)"><path
             d="M 0,0 V 34 C 0,50.5 13.5,64 30,64 46.5,64 60,50.498 60,34 V 0"
             style="fill:none;stroke:#000000;stroke-width:30;stroke-linecap:round;stroke-linejoin:round;stroke-miterlimit:22.926;stroke-dasharray:none;stroke-opacity:1"
             id="path2414" /></g><g
           id="g2416"
           transform="translate(194.0029,436.999)"><path
             d="M 0,0 H 193.994"
             style="fill:none;stroke:#000000;stroke-width:30;stroke-linecap:round;stroke-linejoin:round;stroke-miterlimit:22.926;stroke-dasharray:none;stroke-opacity:1"
             id="path2418" /></g><g
           id="g2420"
           transform="translate(194.0029,376.999)"><path
             d="M 0,0 H 193.994"
             style="fill:none;stroke:#000000;stroke-width:30;stroke-linecap:round;stroke-linejoin:round;stroke-miterlimit:22.926;stroke-dasharray:none;stroke-opacity:1"
             id="path2422" /></g><g
           id="g2424"
           transform="translate(194.0029,316.999)"><path
             d="M 0,0 H 193.994"
             style="fill:none;stroke:#000000;stroke-width:30;stroke-linecap:round;stroke-linejoin:round;stroke-miterlimit:22.926;stroke-dasharray:none;stroke-opacity:1"
             id="path2426" /></g><g
           id="g2428"
           transform="translate(194.0029,256.999)"><path
             d="M 0,0 H 47.729"
             style="fill:none;stroke:#000000;stroke-width:30;stroke-linecap:round;stroke-linejoin:round;stroke-miterlimit:22.926;stroke-dasharray:none;stroke-opacity:1"
             id="path2430" /></g><g
           id="g2432"
           transform="translate(336.5,133.6445)"><path
             d="M 0,0 30.616,-35.424 87.578,37.355"
             style="fill:none;stroke:#000000;stroke-width:30;stroke-linecap:round;stroke-linejoin:round;stroke-miterlimit:22.926;stroke-dasharray:none;stroke-opacity:1"
             id="path2434" /></g></g></g></g></svg>
