<svg id="icon" height="512" viewBox="0 0 128 128" width="512" xmlns="http://www.w3.org/2000/svg"><g><path d="m64 112.887c-27 0-48.888-21.887-48.888-48.887s21.888-48.888 48.888-48.888c27.001 0 48.888 21.888 48.888 48.888 0 1.975 1.603 3.577 3.577 3.577s3.576-1.603 3.576-3.577c0-30.95-25.091-56.042-56.041-56.042s-56.041 25.092-56.041 56.042 25.091 56.042 56.041 56.042c1.975 0 3.577-1.603 3.577-3.577s-1.602-3.578-3.577-3.578z"/><path d="m60.423 25.844v39.347h-20.272c-1.973 0-3.575 1.603-3.575 3.577 0 1.977 1.603 3.579 3.575 3.579h23.849c1.975 0 3.577-1.603 3.577-3.579v-42.924c0-1.976-1.603-3.578-3.577-3.578s-3.577 1.603-3.577 3.578z"/><path d="m92.617 65.191c-15.147 0-27.425 12.278-27.425 27.425 0 15.148 12.277 27.426 27.425 27.426 15.146 0 27.424-12.277 27.424-27.426 0-15.147-12.277-27.425-27.424-27.425zm.332 39.639c-1.191 1.577-3.437 1.889-5.012.698l-10.938-8.269c-1.573-1.189-1.886-3.434-.693-5.011 1.19-1.575 3.436-1.887 5.009-.698l8.085 6.112 11.398-15.079c1.191-1.576 3.436-1.888 5.011-.697s1.888 3.436.696 5.012z"/></g></svg>